{
  "buffers": [
    {
      "byteLength": 2756,
      "uri": "data:application/octet-stream;base64,"
    }
  ],
  "animations": [
    {
      "name": "bend",
      "channels": [
        {
          "sampler": 0,
          "target": {
            "path": "rotation",
            "node": 2
          }
        }
      ],
      "samplers": [
        {
          "input": 6,
          "interpolation": "LINEAR",
          "output": 7
        }
      ]
    },
    {
      "name": "sway",
      "channels": [
        {
          "sampler": 0,
          "target": {
            "path": "rotation",
            "node": 1
          }
        }
      ],
      "samplers": [
        {
          "input": 6,
          "interpolation": "LINEAR",
          "output": 8
        }
      ]
    }
  ],
  "bufferViews": [
    {
      "buffer": 0,
      "byteOffset": 0,
      "byteLength": 576
    },
    {
      "buffer": 0,
      "byteOffset": 576,
      "byteLength": 576
    },
    {
      "buffer": 0,
      "byteOffset": 1152,
      "byteLength": 384
    },
    {
      "buffer": 0,
      "byteOffset": 1536,
      "byteLength": 768
    },
    {
      "buffer": 0,
      "byteOffset": 2304,
      "byteLength": 144
    },
    {
      "buffer": 0,
      "byteOffset": 2448,
      "byteLength": 128
    },
    {
      "buffer": 0,
      "byteOffset": 2576,
      "byteLength": 20
    },
    {
      "buffer": 0,
      "byteOffset": 2596,
      "byteLength": 80
    },
    {
      "buffer": 0,
      "byteOffset": 2676,
      "byteLength": 80
    }
  ],
  "asset": {
    "generator": "Rune two-joint fixture generator",
    "version": "2.0"
  },
  "skins": [
    {
      "inverseBindMatrices": 5,
      "joints": [
        1,
        2
      ],
      "skeleton": 1
    }
  ],
  "scenes": [
    {
      "nodes": [
        0,
        1
      ]
    }
  ],
  "accessors": [
    {
      "bufferView": 0,
      "componentType": 5126,
      "max": [
        0.18,
        2,
        0.18
      ],
      "type": "VEC3",
      "min": [
        -0.18,
        0,
        -0.18
      ],
      "count": 48
    },
    {
      "bufferView": 1,
      "type": "VEC3",
      "count": 48,
      "componentType": 5126
    },
    {
      "bufferView": 2,
      "type": "VEC4",
      "count": 48,
      "componentType": 5123
    },
    {
      "bufferView": 3,
      "type": "VEC4",
      "count": 48,
      "componentType": 5126
    },
    {
      "bufferView": 4,
      "type": "SCALAR",
      "count": 72,
      "componentType": 5123
    },
    {
      "bufferView": 5,
      "type": "MAT4",
      "count": 2,
      "componentType": 5126
    },
    {
      "bufferView": 6,
      "componentType": 5126,
      "max": [
        2
      ],
      "type": "SCALAR",
      "min": [
        0
      ],
      "count": 5
    },
    {
      "bufferView": 7,
      "type": "VEC4",
      "count": 5,
      "componentType": 5126
    },
    {
      "bufferView": 8,
      "type": "VEC4",
      "count": 5,
      "componentType": 5126
    }
  ],
  "nodes": [
    {
      "name": "Arm",
      "skin": 0,
      "mesh": 0
    },
    {
      "name": "Root",
      "children": [
        2
      ]
    },
    {
      "name": "Tip",
      "translation": [
        0,
        1,
        0
      ]
    }
  ],
  "meshes": [
    {
      "primitives": [
        {
          "attributes": {
            "NORMAL": 1,
            "WEIGHTS_0": 3,
            "JOINTS_0": 2,
            "POSITION": 0
          },
          "indices": 4
        }
      ]
    }
  ],
  "scene": 0
}